<svg xmlns="http://www.w3.org/2000/svg" viewBox="0 0 96 96" role="img" aria-labelledby="title">
<title id="title">Maître Hibou</title>
<defs>
  <linearGradient id="b" x1="0" y1="0" x2="1" y2="1">
    <stop offset="0" stop-color="#123f78"/>
    <stop offset="1" stop-color="#061f46"/>
  </linearGradient>
  <linearGradient id="book" x1="0" y1="0" x2="0" y2="1">
    <stop offset="0" stop-color="#2f86d7"/>
    <stop offset="1" stop-color="#174f91"/>
  </linearGradient>
</defs>
<path d="M24 24 17 10l18 8c4-3 8-4 13-4s9 1 13 4l18-8-7 14c6 7 9 16 9 27 0 22-14 36-33 36S15 73 15 51c0-11 3-20 9-27Z" fill="url(#b)"/>
<circle cx="34" cy="39" r="14" fill="#fff"/>
<circle cx="62" cy="39" r="14" fill="#fff"/>
<circle cx="35" cy="40" r="6" fill="#17365d"/>
<circle cx="61" cy="40" r="6" fill="#17365d"/>
<circle cx="33" cy="38" r="2" fill="#fff"/>
<circle cx="59" cy="38" r="2" fill="#fff"/>
<path d="m48 45-7 8h14Z" fill="#f4a62a"/>
<path d="M18 61c12-6 22-4 30 2v23C38 79 28 77 18 80Z" fill="url(#book)" stroke="#fff" stroke-width="2"/>
<path d="M78 61c-12-6-22-4-30 2v23c10-7 20-9 30-6Z" fill="url(#book)" stroke="#fff" stroke-width="2"/>
<path d="M48 63v23" stroke="#fff" stroke-width="2"/>
<path d="M27 67c5 0 10 1 15 4M69 67c-5 0-10 1-15 4" stroke="#bfe0ff" stroke-width="2" stroke-linecap="round"/>
</svg>